<svg width="512" height="512" viewBox="0 0 512 512" fill="none" xmlns="http://www.w3.org/2000/svg">
  <rect width="512" height="512" rx="112" fill="url(#bg)"/>
  <path d="M128 158C128 132.595 148.595 112 174 112H338C363.405 112 384 132.595 384 158V354C384 379.405 363.405 400 338 400H174C148.595 400 128 379.405 128 354V158Z" fill="white" fill-opacity="0.14"/>
  <path d="M178 176V336" stroke="white" stroke-width="32" stroke-linecap="round"/>
  <path d="M178 256H258" stroke="white" stroke-width="32" stroke-linecap="round"/>
  <path d="M258 176V336" stroke="white" stroke-width="32" stroke-linecap="round"/>
  <path d="M306 188H336C357.539 188 375 205.461 375 227C375 248.539 357.539 266 336 266H306V188Z" stroke="white" stroke-width="28" stroke-linejoin="round"/>
  <path d="M306 266L378 336" stroke="white" stroke-width="28" stroke-linecap="round"/>
  <circle cx="154" cy="128" r="18" fill="#34D399"/>
  <circle cx="358" cy="128" r="18" fill="#38BDF8"/>
  <circle cx="256" cy="412" r="18" fill="#A78BFA"/>
  <path d="M154 128H358" stroke="white" stroke-opacity="0.55" stroke-width="10" stroke-linecap="round"/>
  <path d="M154 128L256 412L358 128" stroke="white" stroke-opacity="0.34" stroke-width="10" stroke-linecap="round" stroke-linejoin="round"/>
  <defs>
    <linearGradient id="bg" x1="74" y1="52" x2="448" y2="470" gradientUnits="userSpaceOnUse">
      <stop stop-color="#2563EB"/>
      <stop offset="0.52" stop-color="#6D5EF5"/>
      <stop offset="1" stop-color="#14B8A6"/>
    </linearGradient>
  </defs>
</svg>
